<svg id="visual" viewBox="0 0 900 600" width="900" height="600" xmlns="http://www.w3.org/2000/svg" xmlns:xlink="http://www.w3.org/1999/xlink" version="1.1"><path d="M0 91L13.7 103C27.3 115 54.7 139 82 152C109.3 165 136.7 167 163.8 163C191 159 218 149 245.2 136C272.3 123 299.7 107 327 130C354.3 153 381.7 215 409 232C436.3 249 463.7 221 491 215C518.3 209 545.7 225 573 216C600.3 207 627.7 173 654.8 169C682 165 709 191 736.2 187C763.3 183 790.7 149 818 133C845.3 117 872.7 119 886.3 120L900 121L900 0L886.3 0C872.7 0 845.3 0 818 0C790.7 0 763.3 0 736.2 0C709 0 682 0 654.8 0C627.7 0 600.3 0 573 0C545.7 0 518.3 0 491 0C463.7 0 436.3 0 409 0C381.7 0 354.3 0 327 0C299.7 0 272.3 0 245.2 0C218 0 191 0 163.8 0C136.7 0 109.3 0 82 0C54.7 0 27.3 0 13.7 0L0 0Z" fill="#6198ff"></path><path d="M0 145L13.7 158C27.3 171 54.7 197 82 214C109.3 231 136.7 239 163.8 233C191 227 218 207 245.2 200C272.3 193 299.7 199 327 224C354.3 249 381.7 293 409 307C436.3 321 463.7 305 491 307C518.3 309 545.7 329 573 323C600.3 317 627.7 285 654.8 275C682 265 709 277 736.2 261C763.3 245 790.7 201 818 193C845.3 185 872.7 213 886.3 227L900 241L900 119L886.3 118C872.7 117 845.3 115 818 131C790.7 147 763.3 181 736.2 185C709 189 682 163 654.8 167C627.7 171 600.3 205 573 214C545.7 223 518.3 207 491 213C463.7 219 436.3 247 409 230C381.7 213 354.3 151 327 128C299.7 105 272.3 121 245.2 134C218 147 191 157 163.8 161C136.7 165 109.3 163 82 150C54.7 137 27.3 113 13.7 101L0 89Z" fill="#3c80ff"></path><path d="M0 241L13.7 249C27.3 257 54.7 273 82 291C109.3 309 136.7 329 163.8 325C191 321 218 293 245.2 283C272.3 273 299.7 281 327 304C354.3 327 381.7 365 409 381C436.3 397 463.7 391 491 395C518.3 399 545.7 413 573 398C600.3 383 627.7 339 654.8 324C682 309 709 323 736.2 310C763.3 297 790.7 257 818 251C845.3 245 872.7 273 886.3 287L900 301L900 239L886.3 225C872.7 211 845.3 183 818 191C790.7 199 763.3 243 736.2 259C709 275 682 263 654.8 273C627.7 283 600.3 315 573 321C545.7 327 518.3 307 491 305C463.7 303 436.3 319 409 305C381.7 291 354.3 247 327 222C299.7 197 272.3 191 245.2 198C218 205 191 225 163.8 231C136.7 237 109.3 229 82 212C54.7 195 27.3 169 13.7 156L0 143Z" fill="#0066ff"></path><path d="M0 403L13.7 404C27.3 405 54.7 407 82 409C109.3 411 136.7 413 163.8 411C191 409 218 403 245.2 395C272.3 387 299.7 377 327 392C354.3 407 381.7 447 409 464C436.3 481 463.7 475 491 477C518.3 479 545.7 489 573 478C600.3 467 627.7 435 654.8 437C682 439 709 475 736.2 466C763.3 457 790.7 403 818 380C845.3 357 872.7 365 886.3 369L900 373L900 299L886.3 285C872.7 271 845.3 243 818 249C790.7 255 763.3 295 736.2 308C709 321 682 307 654.8 322C627.7 337 600.3 381 573 396C545.7 411 518.3 397 491 393C463.7 389 436.3 395 409 379C381.7 363 354.3 325 327 302C299.7 279 272.3 271 245.2 281C218 291 191 319 163.8 323C136.7 327 109.3 307 82 289C54.7 271 27.3 255 13.7 247L0 239Z" fill="#0059dd"></path><path d="M0 601L13.7 601C27.3 601 54.7 601 82 601C109.3 601 136.7 601 163.8 601C191 601 218 601 245.2 601C272.3 601 299.7 601 327 601C354.3 601 381.7 601 409 601C436.3 601 463.7 601 491 601C518.3 601 545.7 601 573 601C600.3 601 627.7 601 654.8 601C682 601 709 601 736.2 601C763.3 601 790.7 601 818 601C845.3 601 872.7 601 886.3 601L900 601L900 371L886.3 367C872.7 363 845.3 355 818 378C790.7 401 763.3 455 736.2 464C709 473 682 437 654.8 435C627.7 433 600.3 465 573 476C545.7 487 518.3 477 491 475C463.7 473 436.3 479 409 462C381.7 445 354.3 405 327 390C299.7 375 272.3 385 245.2 393C218 401 191 407 163.8 409C136.7 411 109.3 409 82 407C54.7 405 27.3 403 13.7 402L0 401Z" fill="#004cbb"></path></svg>