<svg id="visual" viewBox="0 0 900 600" width="900" height="600" xmlns="http://www.w3.org/2000/svg" xmlns:xlink="http://www.w3.org/1999/xlink" version="1.1"><rect x="0" y="0" width="900" height="600" fill="#002233"></rect><path d="M0 511L21.5 507.7C43 504.3 86 497.7 128.8 499.2C171.7 500.7 214.3 510.3 257.2 492.8C300 475.3 343 430.7 385.8 421.7C428.7 412.7 471.3 439.3 514.2 445.5C557 451.7 600 437.3 642.8 431C685.7 424.7 728.3 426.3 771.2 421.7C814 417 857 406 878.5 400.5L900 395L900 601L878.5 601C857 601 814 601 771.2 601C728.3 601 685.7 601 642.8 601C600 601 557 601 514.2 601C471.3 601 428.7 601 385.8 601C343 601 300 601 257.2 601C214.3 601 171.7 601 128.8 601C86 601 43 601 21.5 601L0 601Z" fill="#0066FF" stroke-linecap="round" stroke-linejoin="miter"></path></svg>